#!OML:ASF F:\VICON\USERDATA\INSTALL\rory3\rory3.ASF
:FULLY-SPECIFIED
:DEGREES
61
root 0.08847969963632712 17.495192767892387 28.75236528855863 1.5179154185483972 2.0302548179608575 1.7861506743363789
lfemur 10.282038804509895 -1.6430139056334203 -28.318996391819276
ltibia 20.6049542883105
lfoot -5.1739440152576055 -9.357640201453446
ltoes -12.296345899798037
rfemur -32.31148036858117 6.9279900281801226 18.062042218922265
rtibia 37.48619592532989
rfoot -0.5427354676084815 -17.222444139506898
rtoes -6.12088775824958
lowerback 11.510206482552434 -0.687890767161484 -3.6870270532972307
upperback -0.1506659923512405 -1.3458149520931564 0.6690706685181256
thorax -7.079305905844719 -0.5034163510037409 3.5138283100047527
lowerneck -17.749398539489004 -2.740062986795452 -3.152058691031274
upperneck 16.456711454516494 -3.2747030555779517 2.8821599781000358
head 8.166177126587979 -1.444322080335055 1.0498503808031057
lclavicle -1.6755987649547199e-15 -3.59218396455632e-15
lhumerus -27.74490632766708 -9.231737632337683 88.59950488309606
lradius 72.44401902358615
lwrist 21.569715246411544
lhand -30.77594680618206 13.096310119320066
lfingers 7.125019999999999
lthumb -4.589049038568557 42.23062734786817
rclavicle -1.6744850039998037e-15 -3.591372251680953e-15
rhumerus -43.21103121506293 -7.533206684177358 -85.67757307258226
rradius 63.8273072351499
rwrist -3.1054071499125238
rhand -17.665980098778018 30.430237997047335
rfingers 7.125019999999999
rthumb 8.378896050366738 0.734619583600326
62
root 0.010808480356279515 17.30333235544687 29.832086111062516 1.899784478368658 2.789129171104837 2.042978968416021
lfemur 13.156125944810675 -2.980042992301962 -28.26361598532039
ltibia 21.84718853068559
lfoot -4.488304563158057 -11.102860024976675
ltoes -14.606698689811799
rfemur -32.35521553881174 6.425382225360732 18.001762754429713
rtibia 29.874805277629854
rfoot -4.086486160770789 -16.841245328964803
rtoes -11.828602568612062
lowerback 11.308063094923654 -0.9174563058602545 -3.947935916553353
upperback -0.27171504582452444 -1.6508222599681155 0.7818921381082228
thorax -7.013493670879853 -0.6465895145204827 3.816581387107157
lowerneck -17.9651619869805 -2.657037872984722 -3.1864692873581397
upperneck 16.336382912119877 -3.127761212625563 2.794008534291325
head 8.131489003317906 -1.3902739181522041 1.0369261300217287
lclavicle -1.6739273142384258e-15 -3.5910008816186195e-15
lhumerus -26.53051153068632 -9.47245825557332 88.53851255252269
lradius 74.37198572779396
lwrist 22.030646821248368
lhand -31.014988817838844 12.43559833334636
lfingers 7.125019999999999
lthumb -4.776091890683579 41.63375054121191
rclavicle -1.6737712523819658e-15 -3.590867506970835e-15
rhumerus -43.81731430927949 -8.673503988832081 -84.34087584877811
rradius 61.5078389760275
rwrist -1.1264094602282948
rhand -17.84424711377981 30.520153723244437
rfingers 7.125019999999999
rthumb 8.20522771563403 0.7779904741550118
63
root -0.08076558893189538 17.13637699280269 30.99445059371827 1.7024881164364354 2.874626052400214 1.4196252274722374
lfemur 14.682601293319571 -4.496820499871302 -27.434922643687806
ltibia 27.30612137742111
lfoot -2.010768821794738 -12.701831530825839
ltoes -16.100108980814312
rfemur -32.843333721666625 4.019021437626626 20.39832785950833
rtibia 30.26148317818406
rfoot -3.3103073660679643 -12.485010206754252
rtoes -11.70898153681091
lowerback 11.54081098044292 -1.024983614026224 -3.4801858002594117
upperback -0.17526613242611258 -1.7490807757459976 1.1628173574572565
thorax -7.031414859600118 -0.7028906710406202 3.893425355876233
lowerneck -18.09117749160787 -2.521052741084237 -3.195715702475331
upperneck 16.524763523598608 -2.90030187980435 2.4825133600150497
head 8.207823253560646 -1.3050880572807966 0.9572269686699795
lclavicle -1.6739864867871595e-15 -3.5910405107546945e-15
lhumerus -26.507854788631786 -9.103164790456205 88.66092201145072
lradius 75.57059732832346
lwrist 22.20484436919726
lhand -31.691920131595797 11.768709899971418
lfingers 7.125019999999999
lthumb -5.397024207780422 41.01050995698778
rclavicle -1.6746366881129713e-15 -3.591479413587881e-15
rhumerus -44.56590228616386 -10.238049766623948 -82.67022352503326
rradius 59.08440294374921
rwrist 1.774486118033443
rhand -18.024229168317287 30.366245341147017
rfingers 7.125019999999999
rthumb 7.945734175518333 0.4439607405665732
64
root -0.17384437521518406 17.221183081990322 32.05561047035672 1.3561089454175792 3.90385021725713 0.7882409285813368
lfemur 13.570706649378732 -5.581652015812083 -25.891673225132784
ltibia 37.54007816501953
lfoot 6.523928023167448 -14.951313720776714
ltoes -17.714933652409943
rfemur -32.30108467859349 3.3768804489694313 21.877609343071374
rtibia 32.065232475473536
rfoot -0.22296659769450367 -9.449595303939518
rtoes -7.162382601038523
lowerback 11.314238211005371 -1.387691054932847 -2.6928310479997277
upperback -0.25677852649836796 -2.1201510179729253 1.6764160061470126
thorax -6.944955803066176 -0.8917291578456383 3.9158120604426188
lowerneck -18.082144038032045 -2.3789545608750506 -3.185148790107238
upperneck 16.963845498899765 -2.6102981522004907 2.0267691679801865
head 8.316419519104363 -1.2036113484949917 0.8508011356917833
lclavicle -1.672874674849677e-15 -3.59025352543069e-15
lhumerus -28.098049339094427 -8.088136826180035 88.99820016926753
lradius 76.19985687305626
lwrist 22.31250831383759
lhand -32.053027510436564 11.901491816110436
lfingers 7.125019999999999
lthumb -5.851004611784454 41.15282520577523
rclavicle -1.673944598028685e-15 -3.590990016877311e-15
rhumerus -45.42840597378176 -11.97967314237518 -80.52259459761164
rradius 56.635060661488396
rwrist 4.95180897144909
rhand -18.181525198628496 29.97840083110691
rfingers 7.125019999999999
rthumb 7.854821948373391 -0.01684019278445495
